<mxfile host="app.diagrams.net" agent="Mozilla/5.0 (Macintosh; Intel Mac OS X 10_15_7) AppleWebKit/537.36 (KHTML, like Gecko) Chrome/127.0.0.0 Safari/537.36" version="24.7.7">
  <diagram name="第 1 页" id="JIipd19i9SmmQr7zVAu-">
    <mxGraphModel dx="1693" dy="1067" grid="1" gridSize="10" guides="1" tooltips="1" connect="1" arrows="1" fold="1" page="1" pageScale="1" pageWidth="827" pageHeight="1169" math="0" shadow="0">
      <root>
        <mxCell id="0" />
        <mxCell id="1" parent="0" />
        <mxCell id="Aiv-7h0GUZa-xaIfvDL2-1" value="测试通过" style="rounded=1;whiteSpace=wrap;html=1;fillColor=#97D077;strokeColor=#97D077;" vertex="1" parent="1">
          <mxGeometry x="30" y="140" width="87" height="50" as="geometry" />
        </mxCell>
        <mxCell id="Aiv-7h0GUZa-xaIfvDL2-2" value="" style="shape=flexArrow;endArrow=classic;html=1;rounded=0;" edge="1" parent="1">
          <mxGeometry width="50" height="50" relative="1" as="geometry">
            <mxPoint x="130" y="170" as="sourcePoint" />
            <mxPoint x="200" y="170" as="targetPoint" />
          </mxGeometry>
        </mxCell>
        <mxCell id="Aiv-7h0GUZa-xaIfvDL2-4" value="FT 群里同步版本发布信息&lt;div&gt;（发布流水线、功能清单）&lt;/div&gt;" style="rounded=1;whiteSpace=wrap;html=1;strokeColor=#FFF4C3;fillColor=#FFF4C3;" vertex="1" parent="1">
          <mxGeometry x="220" y="135" width="150" height="60" as="geometry" />
        </mxCell>
        <mxCell id="Aiv-7h0GUZa-xaIfvDL2-6" value="PMC&lt;div&gt;FT 群里审批&lt;/div&gt;" style="rhombus;whiteSpace=wrap;html=1;fillColor=#d5e8d4;strokeColor=#D5E8D4;" vertex="1" parent="1">
          <mxGeometry x="470" y="125" width="110" height="80" as="geometry" />
        </mxCell>
        <mxCell id="Aiv-7h0GUZa-xaIfvDL2-8" value="" style="shape=flexArrow;endArrow=classic;html=1;rounded=0;" edge="1" parent="1">
          <mxGeometry width="50" height="50" relative="1" as="geometry">
            <mxPoint x="390" y="164.5" as="sourcePoint" />
            <mxPoint x="460" y="164.5" as="targetPoint" />
          </mxGeometry>
        </mxCell>
        <mxCell id="Aiv-7h0GUZa-xaIfvDL2-9" value="" style="shape=flexArrow;endArrow=classic;html=1;rounded=0;" edge="1" parent="1">
          <mxGeometry width="50" height="50" relative="1" as="geometry">
            <mxPoint x="600" y="164.5" as="sourcePoint" />
            <mxPoint x="670" y="164.5" as="targetPoint" />
          </mxGeometry>
        </mxCell>
        <mxCell id="Aiv-7h0GUZa-xaIfvDL2-11" value="负责人按计划发布" style="rounded=1;whiteSpace=wrap;html=1;fillColor=#FFB570;strokeColor=#FFB570;" vertex="1" parent="1">
          <mxGeometry x="690" y="129.75" width="120" height="70.5" as="geometry" />
        </mxCell>
        <mxCell id="Aiv-7h0GUZa-xaIfvDL2-12" value="" style="shape=flexArrow;endArrow=classic;html=1;rounded=0;" edge="1" parent="1">
          <mxGeometry width="50" height="50" relative="1" as="geometry">
            <mxPoint x="827" y="164.23" as="sourcePoint" />
            <mxPoint x="897" y="164.23" as="targetPoint" />
          </mxGeometry>
        </mxCell>
        <mxCell id="Aiv-7h0GUZa-xaIfvDL2-13" value="发布验证" style="rounded=1;whiteSpace=wrap;html=1;fillColor=#1BA1E2;strokeColor=#1BA1E2;fontColor=#ffffff;" vertex="1" parent="1">
          <mxGeometry x="920" y="127.5" width="130" height="75" as="geometry" />
        </mxCell>
        <mxCell id="Aiv-7h0GUZa-xaIfvDL2-15" value="" style="shape=flexArrow;endArrow=classic;html=1;rounded=0;" edge="1" parent="1">
          <mxGeometry width="50" height="50" relative="1" as="geometry">
            <mxPoint x="1080" y="164.23" as="sourcePoint" />
            <mxPoint x="1150" y="164.23" as="targetPoint" />
          </mxGeometry>
        </mxCell>
        <mxCell id="Aiv-7h0GUZa-xaIfvDL2-17" value="发布完成" style="rounded=1;whiteSpace=wrap;html=1;fillColor=#60A917;strokeColor=#60A917;fontColor=#ffffff;" vertex="1" parent="1">
          <mxGeometry x="1170" y="127.5" width="130" height="75" as="geometry" />
        </mxCell>
      </root>
    </mxGraphModel>
  </diagram>
</mxfile>
